G04 #@! TF.FileFunction,Soldermask,Top*
%FSLAX46Y46*%
G04 Gerber Fmt 4.6, Leading zero omitted, Abs format (unit mm)*
G04 Created by KiCad (PCBNEW 4.0.2+dfsg1-2~bpo8+1-stable) date Sat 25 Nov 2017 07:55:09 PM CST*
%MOMM*%
G01*
G04 APERTURE LIST*
%ADD10C,0.100000*%
%ADD11R,3.400000X3.000000*%
%ADD12R,3.400000X4.000000*%
%ADD13R,2.127200X2.127200*%
%ADD14O,2.127200X2.127200*%
%ADD15R,1.997660X2.200860*%
%ADD16R,2.350000X1.000000*%
%ADD17R,1.700000X1.950000*%
%ADD18R,2.400000X2.100000*%
%ADD19R,2.000000X2.400000*%
%ADD20R,2.400000X2.000000*%
%ADD21R,1.250000X0.850000*%
%ADD22R,2.000000X2.900000*%
%ADD23R,2.127200X2.432000*%
%ADD24O,2.127200X2.432000*%
G04 APERTURE END LIST*
D10*
D11*
X215500000Y-156000000D03*
D12*
X236900000Y-156000000D03*
D13*
X244000000Y-154000000D03*
D14*
X244000000Y-151460000D03*
X246540000Y-154000000D03*
X246540000Y-151460000D03*
X249080000Y-154000000D03*
X249080000Y-151460000D03*
D15*
X248480140Y-161800000D03*
X251319860Y-161800000D03*
D16*
X238700000Y-145715000D03*
X238700000Y-144445000D03*
X238700000Y-143175000D03*
X238700000Y-141905000D03*
X238700000Y-140635000D03*
X238700000Y-139365000D03*
X238700000Y-138095000D03*
X238700000Y-136825000D03*
X238700000Y-135555000D03*
X238700000Y-134285000D03*
X229300000Y-134285000D03*
X229300000Y-135555000D03*
X229300000Y-136825000D03*
X229300000Y-138095000D03*
X229300000Y-139365000D03*
X229300000Y-140635000D03*
X229300000Y-141905000D03*
X229300000Y-143175000D03*
X229300000Y-144445000D03*
X229300000Y-145715000D03*
D13*
X258000000Y-144000000D03*
D14*
X255460000Y-144000000D03*
X258000000Y-141460000D03*
X255460000Y-141460000D03*
X258000000Y-138920000D03*
X255460000Y-138920000D03*
X258000000Y-136380000D03*
X255460000Y-136380000D03*
D17*
X259250000Y-154025000D03*
X254750000Y-154025000D03*
X259250000Y-161975000D03*
X254750000Y-161975000D03*
D18*
X214200000Y-135100000D03*
X218200000Y-135100000D03*
X214200000Y-139100000D03*
X218200000Y-139100000D03*
X214200000Y-142850000D03*
X218200000Y-142850000D03*
X214200000Y-145850000D03*
X218200000Y-145850000D03*
X245200000Y-161800000D03*
X241200000Y-161800000D03*
D19*
X224100000Y-139700000D03*
X224100000Y-143700000D03*
X209400000Y-156700000D03*
X209400000Y-152700000D03*
D20*
X253300000Y-149500000D03*
X257300000Y-149500000D03*
D21*
X211450000Y-162000000D03*
X211450000Y-161000000D03*
X211450000Y-160000000D03*
X208550000Y-160000000D03*
X208550000Y-161000000D03*
X208550000Y-162000000D03*
D22*
X210000000Y-161000000D03*
D23*
X207500000Y-149750000D03*
D24*
X210040000Y-149750000D03*
X212580000Y-149750000D03*
M02*
