G04 #@! TF.FileFunction,Legend,Top*
%FSLAX46Y46*%
G04 Gerber Fmt 4.6, Leading zero omitted, Abs format (unit mm)*
G04 Created by KiCad (PCBNEW 4.0.2+dfsg1-2~bpo8+1-stable) date Sat 25 Nov 2017 07:55:09 PM CST*
%MOMM*%
G01*
G04 APERTURE LIST*
%ADD10C,0.100000*%
%ADD11C,0.300000*%
%ADD12C,0.150000*%
G04 APERTURE END LIST*
D10*
D11*
X208028571Y-147321428D02*
X206528571Y-147321428D01*
X207242857Y-147321428D02*
X207242857Y-146464285D01*
X208028571Y-146464285D02*
X206528571Y-146464285D01*
X206528571Y-145749999D02*
X207742857Y-145749999D01*
X207885714Y-145678571D01*
X207957143Y-145607142D01*
X208028571Y-145464285D01*
X208028571Y-145178571D01*
X207957143Y-145035713D01*
X207885714Y-144964285D01*
X207742857Y-144892856D01*
X206528571Y-144892856D01*
X208028571Y-144178570D02*
X206528571Y-144178570D01*
X207600000Y-143678570D01*
X206528571Y-143178570D01*
X208028571Y-143178570D01*
X206528571Y-141464284D02*
X208028571Y-140464284D01*
X206528571Y-140464284D02*
X208028571Y-141464284D01*
X208028571Y-139892856D02*
X206528571Y-139892856D01*
X207600000Y-139392856D01*
X206528571Y-138892856D01*
X208028571Y-138892856D01*
X208028571Y-138178570D02*
X206528571Y-138178570D01*
X206528571Y-137678570D02*
X206528571Y-136821427D01*
X208028571Y-137249998D02*
X206528571Y-137249998D01*
X206528571Y-135392856D02*
X208028571Y-134892856D01*
X206528571Y-134392856D01*
X208028571Y-133107142D02*
X208028571Y-133964285D01*
X208028571Y-133535713D02*
X206528571Y-133535713D01*
X206742857Y-133678570D01*
X206885714Y-133821428D01*
X206957143Y-133964285D01*
X208928571Y-147785715D02*
X208928571Y-146928572D01*
X210428571Y-147357143D02*
X208928571Y-147357143D01*
X210428571Y-145571429D02*
X209714286Y-146071429D01*
X210428571Y-146428572D02*
X208928571Y-146428572D01*
X208928571Y-145857144D01*
X209000000Y-145714286D01*
X209071429Y-145642858D01*
X209214286Y-145571429D01*
X209428571Y-145571429D01*
X209571429Y-145642858D01*
X209642857Y-145714286D01*
X209714286Y-145857144D01*
X209714286Y-146428572D01*
X208928571Y-144642858D02*
X208928571Y-144357144D01*
X209000000Y-144214286D01*
X209142857Y-144071429D01*
X209428571Y-144000001D01*
X209928571Y-144000001D01*
X210214286Y-144071429D01*
X210357143Y-144214286D01*
X210428571Y-144357144D01*
X210428571Y-144642858D01*
X210357143Y-144785715D01*
X210214286Y-144928572D01*
X209928571Y-145000001D01*
X209428571Y-145000001D01*
X209142857Y-144928572D01*
X209000000Y-144785715D01*
X208928571Y-144642858D01*
X209714286Y-143071429D02*
X210428571Y-143071429D01*
X208928571Y-143571429D02*
X209714286Y-143071429D01*
X208928571Y-142571429D01*
X210428571Y-140928572D02*
X208928571Y-140928572D01*
X208928571Y-140571429D01*
X209000000Y-140357144D01*
X209142857Y-140214286D01*
X209285714Y-140142858D01*
X209571429Y-140071429D01*
X209785714Y-140071429D01*
X210071429Y-140142858D01*
X210214286Y-140214286D01*
X210357143Y-140357144D01*
X210428571Y-140571429D01*
X210428571Y-140928572D01*
X209642857Y-139428572D02*
X209642857Y-138928572D01*
X210428571Y-138714286D02*
X210428571Y-139428572D01*
X208928571Y-139428572D01*
X208928571Y-138714286D01*
X210428571Y-138071429D02*
X208928571Y-138071429D01*
X210428571Y-137214286D01*
X208928571Y-137214286D01*
X208928571Y-136714286D02*
X208928571Y-135857143D01*
X210428571Y-136285714D02*
X208928571Y-136285714D01*
X208928571Y-135071429D02*
X208928571Y-134785715D01*
X209000000Y-134642857D01*
X209142857Y-134500000D01*
X209428571Y-134428572D01*
X209928571Y-134428572D01*
X210214286Y-134500000D01*
X210357143Y-134642857D01*
X210428571Y-134785715D01*
X210428571Y-135071429D01*
X210357143Y-135214286D01*
X210214286Y-135357143D01*
X209928571Y-135428572D01*
X209428571Y-135428572D01*
X209142857Y-135357143D01*
X209000000Y-135214286D01*
X208928571Y-135071429D01*
X210428571Y-133785714D02*
X208928571Y-133785714D01*
X210428571Y-132928571D01*
X208928571Y-132928571D01*
X211471429Y-142821428D02*
X211400000Y-142749999D01*
X211328571Y-142607142D01*
X211328571Y-142249999D01*
X211400000Y-142107142D01*
X211471429Y-142035713D01*
X211614286Y-141964285D01*
X211757143Y-141964285D01*
X211971429Y-142035713D01*
X212828571Y-142892856D01*
X212828571Y-141964285D01*
X211328571Y-141035714D02*
X211328571Y-140892857D01*
X211400000Y-140750000D01*
X211471429Y-140678571D01*
X211614286Y-140607142D01*
X211900000Y-140535714D01*
X212257143Y-140535714D01*
X212542857Y-140607142D01*
X212685714Y-140678571D01*
X212757143Y-140750000D01*
X212828571Y-140892857D01*
X212828571Y-141035714D01*
X212757143Y-141178571D01*
X212685714Y-141250000D01*
X212542857Y-141321428D01*
X212257143Y-141392857D01*
X211900000Y-141392857D01*
X211614286Y-141321428D01*
X211471429Y-141250000D01*
X211400000Y-141178571D01*
X211328571Y-141035714D01*
X212828571Y-139107143D02*
X212828571Y-139964286D01*
X212828571Y-139535714D02*
X211328571Y-139535714D01*
X211542857Y-139678571D01*
X211685714Y-139821429D01*
X211757143Y-139964286D01*
X211328571Y-138607143D02*
X211328571Y-137607143D01*
X212828571Y-138250000D01*
D12*
X238000000Y-156000000D02*
X238000000Y-162500000D01*
X238000000Y-162500000D02*
X233000000Y-162500000D01*
X238000000Y-156000000D02*
X238000000Y-149500000D01*
X238000000Y-149500000D02*
X233000000Y-149500000D01*
X231800000Y-164000000D02*
G75*
G03X232000000Y-148200000I-7800000J8000000D01*
G01*
X216150000Y-148050000D02*
G75*
G03X216050000Y-163850000I7850000J-7950000D01*
G01*
X224000000Y-148200000D02*
X232000000Y-148250000D01*
X232000000Y-148250000D02*
X232000000Y-163850000D01*
X224000000Y-148200000D02*
X216100000Y-148200000D01*
X216100000Y-148200000D02*
X216100000Y-163850000D01*
X216100000Y-163850000D02*
X231900000Y-163850000D01*
X245270000Y-155270000D02*
X250350000Y-155270000D01*
X242450000Y-155550000D02*
X242450000Y-154000000D01*
X242730000Y-152730000D02*
X245270000Y-152730000D01*
X245270000Y-152730000D02*
X245270000Y-155270000D01*
X250350000Y-155270000D02*
X250350000Y-150190000D01*
X250350000Y-150190000D02*
X245270000Y-150190000D01*
X242450000Y-155550000D02*
X244000000Y-155550000D01*
X242730000Y-150190000D02*
X242730000Y-152730000D01*
X245270000Y-150190000D02*
X242730000Y-150190000D01*
X252050000Y-160750000D02*
X248450000Y-160750000D01*
X252050000Y-162850000D02*
X248450000Y-162850000D01*
X250000000Y-162100000D02*
X250000000Y-161500000D01*
X250000000Y-161500000D02*
X250300000Y-161800000D01*
X250300000Y-161800000D02*
X250100000Y-162000000D01*
X250100000Y-162000000D02*
X250100000Y-161750000D01*
X250100000Y-161750000D02*
X250150000Y-161800000D01*
X250400000Y-162300000D02*
X250400000Y-161300000D01*
X249900000Y-161800000D02*
X249400000Y-161800000D01*
X250400000Y-161800000D02*
X249900000Y-162300000D01*
X249900000Y-162300000D02*
X249900000Y-161300000D01*
X249900000Y-161300000D02*
X250400000Y-161800000D01*
X237875000Y-146575000D02*
X237875000Y-146325000D01*
X230125000Y-146575000D02*
X230125000Y-146240000D01*
X230125000Y-133425000D02*
X230125000Y-133760000D01*
X237875000Y-133425000D02*
X237875000Y-133760000D01*
X237875000Y-146575000D02*
X230125000Y-146575000D01*
X237875000Y-133425000D02*
X230125000Y-133425000D01*
X237875000Y-146325000D02*
X239675000Y-146325000D01*
X259915476Y-158000000D02*
G75*
G03X259915476Y-158000000I-2915476J0D01*
G01*
X260000000Y-153000000D02*
X260000000Y-163000000D01*
X260000000Y-163000000D02*
X254000000Y-163000000D01*
X254000000Y-163000000D02*
X254000000Y-153000000D01*
X254000000Y-153000000D02*
X260000000Y-153000000D01*
X217200000Y-136175000D02*
X215200000Y-136175000D01*
X215200000Y-134025000D02*
X217200000Y-134025000D01*
X217200000Y-140175000D02*
X215200000Y-140175000D01*
X215200000Y-138025000D02*
X217200000Y-138025000D01*
X217200000Y-143925000D02*
X215200000Y-143925000D01*
X215200000Y-141775000D02*
X217200000Y-141775000D01*
X217200000Y-146925000D02*
X215200000Y-146925000D01*
X215200000Y-144775000D02*
X217200000Y-144775000D01*
X242200000Y-160725000D02*
X244200000Y-160725000D01*
X244200000Y-162875000D02*
X242200000Y-162875000D01*
X225125000Y-142700000D02*
X225125000Y-140700000D01*
X223075000Y-140700000D02*
X223075000Y-142700000D01*
X208375000Y-153700000D02*
X208375000Y-155700000D01*
X210425000Y-155700000D02*
X210425000Y-153700000D01*
X256300000Y-148475000D02*
X254300000Y-148475000D01*
X254300000Y-150525000D02*
X256300000Y-150525000D01*
X211700000Y-162200000D02*
X208400000Y-162200000D01*
X208400000Y-162200000D02*
X208400000Y-159700000D01*
X208400000Y-159700000D02*
X211700000Y-159700000D01*
X211700000Y-159700000D02*
X211700000Y-162200000D01*
X211200000Y-160300000D02*
X208700000Y-160300000D01*
X208700000Y-160300000D02*
X208700000Y-159900000D01*
X208700000Y-159900000D02*
X211200000Y-159900000D01*
X211200000Y-159900000D02*
X211200000Y-160300000D01*
X207500000Y-148200000D02*
X205950000Y-148200000D01*
X205950000Y-148200000D02*
X205950000Y-151300000D01*
X205950000Y-151300000D02*
X207500000Y-151300000D01*
X208770000Y-148480000D02*
X213850000Y-148480000D01*
X213850000Y-148480000D02*
X213850000Y-151020000D01*
X213850000Y-151020000D02*
X208770000Y-151020000D01*
X208770000Y-151020000D02*
X208770000Y-148480000D01*
X224428571Y-156785714D02*
X224476190Y-156642857D01*
X224523810Y-156595238D01*
X224619048Y-156547619D01*
X224761905Y-156547619D01*
X224857143Y-156595238D01*
X224904762Y-156642857D01*
X224952381Y-156738095D01*
X224952381Y-157119048D01*
X223952381Y-157119048D01*
X223952381Y-156785714D01*
X224000000Y-156690476D01*
X224047619Y-156642857D01*
X224142857Y-156595238D01*
X224238095Y-156595238D01*
X224333333Y-156642857D01*
X224380952Y-156690476D01*
X224428571Y-156785714D01*
X224428571Y-157119048D01*
X223952381Y-156261905D02*
X223952381Y-155690476D01*
X224952381Y-155976191D02*
X223952381Y-155976191D01*
X224952381Y-154833333D02*
X224952381Y-155404762D01*
X224952381Y-155119048D02*
X223952381Y-155119048D01*
X224095238Y-155214286D01*
X224190476Y-155309524D01*
X224238095Y-155404762D01*
X239257143Y-155214285D02*
X239304762Y-155261904D01*
X239352381Y-155404761D01*
X239352381Y-155499999D01*
X239304762Y-155642857D01*
X239209524Y-155738095D01*
X239114286Y-155785714D01*
X238923810Y-155833333D01*
X238780952Y-155833333D01*
X238590476Y-155785714D01*
X238495238Y-155738095D01*
X238400000Y-155642857D01*
X238352381Y-155499999D01*
X238352381Y-155404761D01*
X238400000Y-155261904D01*
X238447619Y-155214285D01*
X238352381Y-154595238D02*
X238352381Y-154404761D01*
X238400000Y-154309523D01*
X238495238Y-154214285D01*
X238685714Y-154166666D01*
X239019048Y-154166666D01*
X239209524Y-154214285D01*
X239304762Y-154309523D01*
X239352381Y-154404761D01*
X239352381Y-154595238D01*
X239304762Y-154690476D01*
X239209524Y-154785714D01*
X239019048Y-154833333D01*
X238685714Y-154833333D01*
X238495238Y-154785714D01*
X238400000Y-154690476D01*
X238352381Y-154595238D01*
X239352381Y-153738095D02*
X238352381Y-153738095D01*
X239352381Y-153166666D01*
X238352381Y-153166666D01*
X239352381Y-152166666D02*
X239352381Y-152738095D01*
X239352381Y-152452381D02*
X238352381Y-152452381D01*
X238495238Y-152547619D01*
X238590476Y-152642857D01*
X238638095Y-152738095D01*
X249261905Y-159952381D02*
X249261905Y-158952381D01*
X249500000Y-158952381D01*
X249642858Y-159000000D01*
X249738096Y-159095238D01*
X249785715Y-159190476D01*
X249833334Y-159380952D01*
X249833334Y-159523810D01*
X249785715Y-159714286D01*
X249738096Y-159809524D01*
X249642858Y-159904762D01*
X249500000Y-159952381D01*
X249261905Y-159952381D01*
X250785715Y-159952381D02*
X250214286Y-159952381D01*
X250500000Y-159952381D02*
X250500000Y-158952381D01*
X250404762Y-159095238D01*
X250309524Y-159190476D01*
X250214286Y-159238095D01*
X233023810Y-147952381D02*
X233023810Y-146952381D01*
X234071429Y-147857143D02*
X234023810Y-147904762D01*
X233880953Y-147952381D01*
X233785715Y-147952381D01*
X233642857Y-147904762D01*
X233547619Y-147809524D01*
X233500000Y-147714286D01*
X233452381Y-147523810D01*
X233452381Y-147380952D01*
X233500000Y-147190476D01*
X233547619Y-147095238D01*
X233642857Y-147000000D01*
X233785715Y-146952381D01*
X233880953Y-146952381D01*
X234023810Y-147000000D01*
X234071429Y-147047619D01*
X235023810Y-147952381D02*
X234452381Y-147952381D01*
X234738095Y-147952381D02*
X234738095Y-146952381D01*
X234642857Y-147095238D01*
X234547619Y-147190476D01*
X234452381Y-147238095D01*
X260904762Y-159333333D02*
X260952381Y-159190476D01*
X260952381Y-158952380D01*
X260904762Y-158857142D01*
X260857143Y-158809523D01*
X260761905Y-158761904D01*
X260666667Y-158761904D01*
X260571429Y-158809523D01*
X260523810Y-158857142D01*
X260476190Y-158952380D01*
X260428571Y-159142857D01*
X260380952Y-159238095D01*
X260333333Y-159285714D01*
X260238095Y-159333333D01*
X260142857Y-159333333D01*
X260047619Y-159285714D01*
X260000000Y-159238095D01*
X259952381Y-159142857D01*
X259952381Y-158904761D01*
X260000000Y-158761904D01*
X259952381Y-158428571D02*
X260952381Y-158190476D01*
X260238095Y-157999999D01*
X260952381Y-157809523D01*
X259952381Y-157571428D01*
X260952381Y-156666666D02*
X260952381Y-157238095D01*
X260952381Y-156952381D02*
X259952381Y-156952381D01*
X260095238Y-157047619D01*
X260190476Y-157142857D01*
X260238095Y-157238095D01*
X216033334Y-133252381D02*
X215700000Y-132776190D01*
X215461905Y-133252381D02*
X215461905Y-132252381D01*
X215842858Y-132252381D01*
X215938096Y-132300000D01*
X215985715Y-132347619D01*
X216033334Y-132442857D01*
X216033334Y-132585714D01*
X215985715Y-132680952D01*
X215938096Y-132728571D01*
X215842858Y-132776190D01*
X215461905Y-132776190D01*
X216985715Y-133252381D02*
X216414286Y-133252381D01*
X216700000Y-133252381D02*
X216700000Y-132252381D01*
X216604762Y-132395238D01*
X216509524Y-132490476D01*
X216414286Y-132538095D01*
X216033334Y-137252381D02*
X215700000Y-136776190D01*
X215461905Y-137252381D02*
X215461905Y-136252381D01*
X215842858Y-136252381D01*
X215938096Y-136300000D01*
X215985715Y-136347619D01*
X216033334Y-136442857D01*
X216033334Y-136585714D01*
X215985715Y-136680952D01*
X215938096Y-136728571D01*
X215842858Y-136776190D01*
X215461905Y-136776190D01*
X216414286Y-136347619D02*
X216461905Y-136300000D01*
X216557143Y-136252381D01*
X216795239Y-136252381D01*
X216890477Y-136300000D01*
X216938096Y-136347619D01*
X216985715Y-136442857D01*
X216985715Y-136538095D01*
X216938096Y-136680952D01*
X216366667Y-137252381D01*
X216985715Y-137252381D01*
X216033334Y-141002381D02*
X215700000Y-140526190D01*
X215461905Y-141002381D02*
X215461905Y-140002381D01*
X215842858Y-140002381D01*
X215938096Y-140050000D01*
X215985715Y-140097619D01*
X216033334Y-140192857D01*
X216033334Y-140335714D01*
X215985715Y-140430952D01*
X215938096Y-140478571D01*
X215842858Y-140526190D01*
X215461905Y-140526190D01*
X216938096Y-140002381D02*
X216461905Y-140002381D01*
X216414286Y-140478571D01*
X216461905Y-140430952D01*
X216557143Y-140383333D01*
X216795239Y-140383333D01*
X216890477Y-140430952D01*
X216938096Y-140478571D01*
X216985715Y-140573810D01*
X216985715Y-140811905D01*
X216938096Y-140907143D01*
X216890477Y-140954762D01*
X216795239Y-141002381D01*
X216557143Y-141002381D01*
X216461905Y-140954762D01*
X216414286Y-140907143D01*
X216033334Y-144002381D02*
X215700000Y-143526190D01*
X215461905Y-144002381D02*
X215461905Y-143002381D01*
X215842858Y-143002381D01*
X215938096Y-143050000D01*
X215985715Y-143097619D01*
X216033334Y-143192857D01*
X216033334Y-143335714D01*
X215985715Y-143430952D01*
X215938096Y-143478571D01*
X215842858Y-143526190D01*
X215461905Y-143526190D01*
X216366667Y-143002381D02*
X216985715Y-143002381D01*
X216652381Y-143383333D01*
X216795239Y-143383333D01*
X216890477Y-143430952D01*
X216938096Y-143478571D01*
X216985715Y-143573810D01*
X216985715Y-143811905D01*
X216938096Y-143907143D01*
X216890477Y-143954762D01*
X216795239Y-144002381D01*
X216509524Y-144002381D01*
X216414286Y-143954762D01*
X216366667Y-143907143D01*
X243333334Y-160202381D02*
X243000000Y-159726190D01*
X242761905Y-160202381D02*
X242761905Y-159202381D01*
X243142858Y-159202381D01*
X243238096Y-159250000D01*
X243285715Y-159297619D01*
X243333334Y-159392857D01*
X243333334Y-159535714D01*
X243285715Y-159630952D01*
X243238096Y-159678571D01*
X243142858Y-159726190D01*
X242761905Y-159726190D01*
X244190477Y-159535714D02*
X244190477Y-160202381D01*
X243952381Y-159154762D02*
X243714286Y-159869048D01*
X244333334Y-159869048D01*
X226757143Y-141866666D02*
X226804762Y-141914285D01*
X226852381Y-142057142D01*
X226852381Y-142152380D01*
X226804762Y-142295238D01*
X226709524Y-142390476D01*
X226614286Y-142438095D01*
X226423810Y-142485714D01*
X226280952Y-142485714D01*
X226090476Y-142438095D01*
X225995238Y-142390476D01*
X225900000Y-142295238D01*
X225852381Y-142152380D01*
X225852381Y-142057142D01*
X225900000Y-141914285D01*
X225947619Y-141866666D01*
X225852381Y-141533333D02*
X225852381Y-140914285D01*
X226233333Y-141247619D01*
X226233333Y-141104761D01*
X226280952Y-141009523D01*
X226328571Y-140961904D01*
X226423810Y-140914285D01*
X226661905Y-140914285D01*
X226757143Y-140961904D01*
X226804762Y-141009523D01*
X226852381Y-141104761D01*
X226852381Y-141390476D01*
X226804762Y-141485714D01*
X226757143Y-141533333D01*
X207457143Y-154866666D02*
X207504762Y-154914285D01*
X207552381Y-155057142D01*
X207552381Y-155152380D01*
X207504762Y-155295238D01*
X207409524Y-155390476D01*
X207314286Y-155438095D01*
X207123810Y-155485714D01*
X206980952Y-155485714D01*
X206790476Y-155438095D01*
X206695238Y-155390476D01*
X206600000Y-155295238D01*
X206552381Y-155152380D01*
X206552381Y-155057142D01*
X206600000Y-154914285D01*
X206647619Y-154866666D01*
X206647619Y-154485714D02*
X206600000Y-154438095D01*
X206552381Y-154342857D01*
X206552381Y-154104761D01*
X206600000Y-154009523D01*
X206647619Y-153961904D01*
X206742857Y-153914285D01*
X206838095Y-153914285D01*
X206980952Y-153961904D01*
X207552381Y-154533333D01*
X207552381Y-153914285D01*
X255133334Y-147557143D02*
X255085715Y-147604762D01*
X254942858Y-147652381D01*
X254847620Y-147652381D01*
X254704762Y-147604762D01*
X254609524Y-147509524D01*
X254561905Y-147414286D01*
X254514286Y-147223810D01*
X254514286Y-147080952D01*
X254561905Y-146890476D01*
X254609524Y-146795238D01*
X254704762Y-146700000D01*
X254847620Y-146652381D01*
X254942858Y-146652381D01*
X255085715Y-146700000D01*
X255133334Y-146747619D01*
X256085715Y-147652381D02*
X255514286Y-147652381D01*
X255800000Y-147652381D02*
X255800000Y-146652381D01*
X255704762Y-146795238D01*
X255609524Y-146890476D01*
X255514286Y-146938095D01*
X209238095Y-158452381D02*
X209238095Y-159261905D01*
X209285714Y-159357143D01*
X209333333Y-159404762D01*
X209428571Y-159452381D01*
X209619048Y-159452381D01*
X209714286Y-159404762D01*
X209761905Y-159357143D01*
X209809524Y-159261905D01*
X209809524Y-158452381D01*
X210809524Y-159452381D02*
X210238095Y-159452381D01*
X210523809Y-159452381D02*
X210523809Y-158452381D01*
X210428571Y-158595238D01*
X210333333Y-158690476D01*
X210238095Y-158738095D01*
X212011905Y-147952381D02*
X212011905Y-146952381D01*
X212392858Y-146952381D01*
X212488096Y-147000000D01*
X212535715Y-147047619D01*
X212583334Y-147142857D01*
X212583334Y-147285714D01*
X212535715Y-147380952D01*
X212488096Y-147428571D01*
X212392858Y-147476190D01*
X212011905Y-147476190D01*
X212964286Y-147047619D02*
X213011905Y-147000000D01*
X213107143Y-146952381D01*
X213345239Y-146952381D01*
X213440477Y-147000000D01*
X213488096Y-147047619D01*
X213535715Y-147142857D01*
X213535715Y-147238095D01*
X213488096Y-147380952D01*
X212916667Y-147952381D01*
X213535715Y-147952381D01*
M02*
