G04 #@! TF.FileFunction,Copper,L2,Bot,Signal*
%FSLAX46Y46*%
G04 Gerber Fmt 4.6, Leading zero omitted, Abs format (unit mm)*
G04 Created by KiCad (PCBNEW 4.0.2+dfsg1-2~bpo8+1-stable) date Sat 25 Nov 2017 07:55:09 PM CST*
%MOMM*%
G01*
G04 APERTURE LIST*
%ADD10C,0.100000*%
%ADD11R,1.727200X1.727200*%
%ADD12O,1.727200X1.727200*%
%ADD13R,1.727200X2.032000*%
%ADD14O,1.727200X2.032000*%
%ADD15C,0.600000*%
%ADD16C,0.250000*%
%ADD17C,0.153000*%
G04 APERTURE END LIST*
D10*
D11*
X244000000Y-154000000D03*
D12*
X244000000Y-151460000D03*
X246540000Y-154000000D03*
X246540000Y-151460000D03*
X249080000Y-154000000D03*
X249080000Y-151460000D03*
D11*
X258000000Y-144000000D03*
D12*
X255460000Y-144000000D03*
X258000000Y-141460000D03*
X255460000Y-141460000D03*
X258000000Y-138920000D03*
X255460000Y-138920000D03*
X258000000Y-136380000D03*
X255460000Y-136380000D03*
D13*
X207500000Y-149750000D03*
D14*
X210040000Y-149750000D03*
X212580000Y-149750000D03*
D15*
X243700000Y-141200000D03*
X223700000Y-134200000D03*
X229800000Y-158000000D03*
X220100000Y-136900000D03*
X242000000Y-146000000D03*
D16*
X244000000Y-141500000D02*
X244000000Y-151460000D01*
X243700000Y-141200000D02*
X244000000Y-141500000D01*
X244000000Y-154000000D02*
X244000000Y-155400000D01*
X259900000Y-138280000D02*
X258000000Y-136380000D01*
X259900000Y-147700000D02*
X259900000Y-138280000D01*
X250900000Y-156700000D02*
X259900000Y-147700000D01*
X245300000Y-156700000D02*
X250900000Y-156700000D01*
X244000000Y-155400000D02*
X245300000Y-156700000D01*
X246540000Y-154000000D02*
X246540000Y-154940000D01*
X256800000Y-140120000D02*
X258000000Y-138920000D01*
X256800000Y-148700000D02*
X256800000Y-140120000D01*
X249700000Y-155800000D02*
X256800000Y-148700000D01*
X247400000Y-155800000D02*
X249700000Y-155800000D01*
X246540000Y-154940000D02*
X247400000Y-155800000D01*
X246540000Y-151460000D02*
X246540000Y-144060000D01*
X251680000Y-138920000D02*
X255460000Y-138920000D01*
X246540000Y-144060000D02*
X251680000Y-138920000D01*
X249080000Y-154000000D02*
X248900000Y-154000000D01*
X248900000Y-154000000D02*
X247700000Y-152800000D01*
X247700000Y-152800000D02*
X242300000Y-152800000D01*
X242300000Y-152800000D02*
X223700000Y-134200000D01*
X220100000Y-147100000D02*
X220100000Y-148300000D01*
X220100000Y-148300000D02*
X229800000Y-158000000D01*
X220100000Y-136900000D02*
X220100000Y-147100000D01*
X220100000Y-147100000D02*
X220100000Y-147200000D01*
X210040000Y-149750000D02*
X210040000Y-135710000D01*
X240500000Y-146000000D02*
X242000000Y-146000000D01*
X227500000Y-133000000D02*
X240500000Y-146000000D01*
X212750000Y-133000000D02*
X227500000Y-133000000D01*
X210040000Y-135710000D02*
X212750000Y-133000000D01*
D17*
G36*
X260923500Y-163923500D02*
X206076500Y-163923500D01*
X206076500Y-148734000D01*
X206402404Y-148734000D01*
X206402404Y-150766000D01*
X206418407Y-150851048D01*
X206468670Y-150929159D01*
X206545362Y-150981560D01*
X206636400Y-150999996D01*
X208363600Y-150999996D01*
X208448648Y-150983993D01*
X208526759Y-150933730D01*
X208579160Y-150857038D01*
X208597596Y-150766000D01*
X208597596Y-149573199D01*
X208946900Y-149573199D01*
X208946900Y-149926801D01*
X209030107Y-150345112D01*
X209267062Y-150699739D01*
X209621689Y-150936694D01*
X210040000Y-151019901D01*
X210458311Y-150936694D01*
X210812938Y-150699739D01*
X211049893Y-150345112D01*
X211132961Y-149927502D01*
X211279561Y-149927502D01*
X211155173Y-150153483D01*
X211359717Y-150679628D01*
X211750038Y-151087447D01*
X212179861Y-151294119D01*
X212402500Y-151192219D01*
X212402500Y-149927500D01*
X212757500Y-149927500D01*
X212757500Y-151192219D01*
X212980139Y-151294119D01*
X213409962Y-151087447D01*
X213800283Y-150679628D01*
X214004827Y-150153483D01*
X213880438Y-149927500D01*
X212757500Y-149927500D01*
X212402500Y-149927500D01*
X212382500Y-149927500D01*
X212382500Y-149572500D01*
X212402500Y-149572500D01*
X212402500Y-148307781D01*
X212757500Y-148307781D01*
X212757500Y-149572500D01*
X213880438Y-149572500D01*
X214004827Y-149346517D01*
X213800283Y-148820372D01*
X213409962Y-148412553D01*
X212980139Y-148205881D01*
X212757500Y-148307781D01*
X212402500Y-148307781D01*
X212179861Y-148205881D01*
X211750038Y-148412553D01*
X211359717Y-148820372D01*
X211155173Y-149346517D01*
X211279561Y-149572498D01*
X211132961Y-149572498D01*
X211049893Y-149154888D01*
X210812938Y-148800261D01*
X210458311Y-148563306D01*
X210394500Y-148550613D01*
X210394500Y-137004862D01*
X219570408Y-137004862D01*
X219650850Y-137199546D01*
X219745500Y-137294362D01*
X219745500Y-148300000D01*
X219772485Y-148435661D01*
X219849331Y-148550669D01*
X229270524Y-157971863D01*
X229270408Y-158104862D01*
X229350850Y-158299546D01*
X229499670Y-158448627D01*
X229694214Y-158529408D01*
X229904862Y-158529592D01*
X230099546Y-158449150D01*
X230248627Y-158300330D01*
X230329408Y-158105786D01*
X230329592Y-157895138D01*
X230249150Y-157700454D01*
X230100330Y-157551373D01*
X229905786Y-157470592D01*
X229771814Y-157470475D01*
X220454500Y-148153162D01*
X220454500Y-137294292D01*
X220548627Y-137200330D01*
X220629408Y-137005786D01*
X220629592Y-136795138D01*
X220549150Y-136600454D01*
X220400330Y-136451373D01*
X220205786Y-136370592D01*
X219995138Y-136370408D01*
X219800454Y-136450850D01*
X219651373Y-136599670D01*
X219570592Y-136794214D01*
X219570408Y-137004862D01*
X210394500Y-137004862D01*
X210394500Y-135856838D01*
X211946476Y-134304862D01*
X223170408Y-134304862D01*
X223250850Y-134499546D01*
X223399670Y-134648627D01*
X223594214Y-134729408D01*
X223728187Y-134729525D01*
X242049330Y-153050669D01*
X242164339Y-153127515D01*
X242300000Y-153154500D01*
X242902404Y-153154500D01*
X242902404Y-154863600D01*
X242918407Y-154948648D01*
X242968670Y-155026759D01*
X243045362Y-155079160D01*
X243136400Y-155097596D01*
X243645500Y-155097596D01*
X243645500Y-155400000D01*
X243672485Y-155535661D01*
X243749331Y-155650669D01*
X245049331Y-156950670D01*
X245164339Y-157027515D01*
X245300000Y-157054500D01*
X250900000Y-157054500D01*
X251035661Y-157027515D01*
X251150669Y-156950669D01*
X260150669Y-147950669D01*
X260227515Y-147835661D01*
X260254500Y-147700000D01*
X260254500Y-138280000D01*
X260227515Y-138144339D01*
X260150670Y-138029331D01*
X258982324Y-136860986D01*
X259009893Y-136819726D01*
X259093100Y-136401415D01*
X259093100Y-136358585D01*
X259009893Y-135940274D01*
X258772938Y-135585647D01*
X258418311Y-135348692D01*
X258000000Y-135265485D01*
X257581689Y-135348692D01*
X257227062Y-135585647D01*
X256990107Y-135940274D01*
X256906900Y-136358585D01*
X256906900Y-136401415D01*
X256990107Y-136819726D01*
X257227062Y-137174353D01*
X257581689Y-137411308D01*
X258000000Y-137494515D01*
X258418311Y-137411308D01*
X258485245Y-137366584D01*
X259545500Y-138426839D01*
X259545500Y-147553162D01*
X250753162Y-156345500D01*
X245446839Y-156345500D01*
X244354500Y-155253162D01*
X244354500Y-155097596D01*
X244863600Y-155097596D01*
X244948648Y-155081593D01*
X245026759Y-155031330D01*
X245079160Y-154954638D01*
X245097596Y-154863600D01*
X245097596Y-153154500D01*
X245843609Y-153154500D01*
X245767062Y-153205647D01*
X245530107Y-153560274D01*
X245446900Y-153978585D01*
X245446900Y-154021415D01*
X245530107Y-154439726D01*
X245767062Y-154794353D01*
X246121689Y-155031308D01*
X246207040Y-155048285D01*
X246212485Y-155075661D01*
X246289331Y-155190669D01*
X247149331Y-156050670D01*
X247264339Y-156127515D01*
X247400000Y-156154500D01*
X249700000Y-156154500D01*
X249835661Y-156127515D01*
X249950669Y-156050669D01*
X257050669Y-148950670D01*
X257127515Y-148835661D01*
X257130556Y-148820372D01*
X257154500Y-148700000D01*
X257154500Y-145448100D01*
X257676375Y-145448100D01*
X257822500Y-145301975D01*
X257822500Y-144177500D01*
X258177500Y-144177500D01*
X258177500Y-145301975D01*
X258323625Y-145448100D01*
X258979865Y-145448100D01*
X259194693Y-145359115D01*
X259359115Y-145194692D01*
X259448100Y-144979864D01*
X259448100Y-144323625D01*
X259301975Y-144177500D01*
X258177500Y-144177500D01*
X257822500Y-144177500D01*
X257802500Y-144177500D01*
X257802500Y-143822500D01*
X257822500Y-143822500D01*
X257822500Y-143802500D01*
X258177500Y-143802500D01*
X258177500Y-143822500D01*
X259301975Y-143822500D01*
X259448100Y-143676375D01*
X259448100Y-143020136D01*
X259359115Y-142805308D01*
X259194693Y-142640885D01*
X258979865Y-142551900D01*
X258323625Y-142551900D01*
X258177502Y-142698023D01*
X258177502Y-142551900D01*
X258113694Y-142551900D01*
X258418311Y-142491308D01*
X258772938Y-142254353D01*
X259009893Y-141899726D01*
X259093100Y-141481415D01*
X259093100Y-141438585D01*
X259009893Y-141020274D01*
X258772938Y-140665647D01*
X258418311Y-140428692D01*
X258000000Y-140345485D01*
X257581689Y-140428692D01*
X257227062Y-140665647D01*
X257154500Y-140774243D01*
X257154500Y-140266838D01*
X257514755Y-139906584D01*
X257581689Y-139951308D01*
X258000000Y-140034515D01*
X258418311Y-139951308D01*
X258772938Y-139714353D01*
X259009893Y-139359726D01*
X259093100Y-138941415D01*
X259093100Y-138898585D01*
X259009893Y-138480274D01*
X258772938Y-138125647D01*
X258418311Y-137888692D01*
X258000000Y-137805485D01*
X257581689Y-137888692D01*
X257227062Y-138125647D01*
X256990107Y-138480274D01*
X256906900Y-138898585D01*
X256906900Y-138941415D01*
X256990107Y-139359726D01*
X257017676Y-139400986D01*
X256549331Y-139869331D01*
X256472485Y-139984339D01*
X256445500Y-140120000D01*
X256445500Y-140983767D01*
X256232938Y-140665647D01*
X255878311Y-140428692D01*
X255460000Y-140345485D01*
X255041689Y-140428692D01*
X254687062Y-140665647D01*
X254450107Y-141020274D01*
X254366900Y-141438585D01*
X254366900Y-141481415D01*
X254450107Y-141899726D01*
X254687062Y-142254353D01*
X255041689Y-142491308D01*
X255460000Y-142574515D01*
X255878311Y-142491308D01*
X256232938Y-142254353D01*
X256445500Y-141936233D01*
X256445500Y-143523767D01*
X256232938Y-143205647D01*
X255878311Y-142968692D01*
X255460000Y-142885485D01*
X255041689Y-142968692D01*
X254687062Y-143205647D01*
X254450107Y-143560274D01*
X254366900Y-143978585D01*
X254366900Y-144021415D01*
X254450107Y-144439726D01*
X254687062Y-144794353D01*
X255041689Y-145031308D01*
X255460000Y-145114515D01*
X255878311Y-145031308D01*
X256232938Y-144794353D01*
X256445500Y-144476233D01*
X256445500Y-148553161D01*
X249553162Y-155445500D01*
X247546839Y-155445500D01*
X247062817Y-154961479D01*
X247312938Y-154794353D01*
X247549893Y-154439726D01*
X247633100Y-154021415D01*
X247633100Y-153978585D01*
X247549893Y-153560274D01*
X247312938Y-153205647D01*
X247236391Y-153154500D01*
X247553162Y-153154500D01*
X248051663Y-153653001D01*
X247986900Y-153978585D01*
X247986900Y-154021415D01*
X248070107Y-154439726D01*
X248307062Y-154794353D01*
X248661689Y-155031308D01*
X249080000Y-155114515D01*
X249498311Y-155031308D01*
X249852938Y-154794353D01*
X250089893Y-154439726D01*
X250173100Y-154021415D01*
X250173100Y-153978585D01*
X250089893Y-153560274D01*
X249852938Y-153205647D01*
X249498311Y-152968692D01*
X249193694Y-152908100D01*
X249257502Y-152908100D01*
X249257502Y-152749820D01*
X249480139Y-152851719D01*
X249781161Y-152727046D01*
X250212666Y-152362275D01*
X250471733Y-151860141D01*
X250371069Y-151637500D01*
X249257500Y-151637500D01*
X249257500Y-151657500D01*
X248902500Y-151657500D01*
X248902500Y-151637500D01*
X248882500Y-151637500D01*
X248882500Y-151282500D01*
X248902500Y-151282500D01*
X248902500Y-150170181D01*
X249257500Y-150170181D01*
X249257500Y-151282500D01*
X250371069Y-151282500D01*
X250471733Y-151059859D01*
X250212666Y-150557725D01*
X249781161Y-150192954D01*
X249480139Y-150068281D01*
X249257500Y-150170181D01*
X248902500Y-150170181D01*
X248679861Y-150068281D01*
X248378839Y-150192954D01*
X247947334Y-150557725D01*
X247688267Y-151059859D01*
X247788930Y-151282498D01*
X247631900Y-151282498D01*
X247631900Y-151432552D01*
X247549893Y-151020274D01*
X247312938Y-150665647D01*
X246958311Y-150428692D01*
X246894500Y-150415999D01*
X246894500Y-144206838D01*
X251826839Y-139274500D01*
X254433155Y-139274500D01*
X254450107Y-139359726D01*
X254687062Y-139714353D01*
X255041689Y-139951308D01*
X255460000Y-140034515D01*
X255878311Y-139951308D01*
X256232938Y-139714353D01*
X256469893Y-139359726D01*
X256553100Y-138941415D01*
X256553100Y-138898585D01*
X256469893Y-138480274D01*
X256232938Y-138125647D01*
X255878311Y-137888692D01*
X255460000Y-137805485D01*
X255041689Y-137888692D01*
X254687062Y-138125647D01*
X254450107Y-138480274D01*
X254433155Y-138565500D01*
X251680000Y-138565500D01*
X251544339Y-138592485D01*
X251429331Y-138669330D01*
X246289331Y-143809331D01*
X246212485Y-143924339D01*
X246185500Y-144060000D01*
X246185500Y-150415999D01*
X246121689Y-150428692D01*
X245767062Y-150665647D01*
X245530107Y-151020274D01*
X245446900Y-151438585D01*
X245446900Y-151481415D01*
X245530107Y-151899726D01*
X245767062Y-152254353D01*
X246053133Y-152445500D01*
X244486867Y-152445500D01*
X244772938Y-152254353D01*
X245009893Y-151899726D01*
X245093100Y-151481415D01*
X245093100Y-151438585D01*
X245009893Y-151020274D01*
X244772938Y-150665647D01*
X244418311Y-150428692D01*
X244354500Y-150415999D01*
X244354500Y-141500000D01*
X244327515Y-141364339D01*
X244250669Y-141249331D01*
X244229476Y-141228138D01*
X244229592Y-141095138D01*
X244149150Y-140900454D01*
X244000330Y-140751373D01*
X243805786Y-140670592D01*
X243595138Y-140670408D01*
X243400454Y-140750850D01*
X243251373Y-140899670D01*
X243170592Y-141094214D01*
X243170408Y-141304862D01*
X243250850Y-141499546D01*
X243399670Y-141648627D01*
X243594214Y-141729408D01*
X243645500Y-141729453D01*
X243645500Y-150415999D01*
X243581689Y-150428692D01*
X243227062Y-150665647D01*
X242990107Y-151020274D01*
X242906900Y-151438585D01*
X242906900Y-151481415D01*
X242990107Y-151899726D01*
X243227062Y-152254353D01*
X243513133Y-152445500D01*
X242446839Y-152445500D01*
X224229476Y-134228138D01*
X224229592Y-134095138D01*
X224149150Y-133900454D01*
X224000330Y-133751373D01*
X223805786Y-133670592D01*
X223595138Y-133670408D01*
X223400454Y-133750850D01*
X223251373Y-133899670D01*
X223170592Y-134094214D01*
X223170408Y-134304862D01*
X211946476Y-134304862D01*
X212896839Y-133354500D01*
X227353162Y-133354500D01*
X240249330Y-146250669D01*
X240364339Y-146327515D01*
X240500000Y-146354500D01*
X241605708Y-146354500D01*
X241699670Y-146448627D01*
X241894214Y-146529408D01*
X242104862Y-146529592D01*
X242299546Y-146449150D01*
X242448627Y-146300330D01*
X242529408Y-146105786D01*
X242529592Y-145895138D01*
X242449150Y-145700454D01*
X242300330Y-145551373D01*
X242105786Y-145470592D01*
X241895138Y-145470408D01*
X241700454Y-145550850D01*
X241605638Y-145645500D01*
X240646839Y-145645500D01*
X231359924Y-136358585D01*
X254366900Y-136358585D01*
X254366900Y-136401415D01*
X254450107Y-136819726D01*
X254687062Y-137174353D01*
X255041689Y-137411308D01*
X255460000Y-137494515D01*
X255878311Y-137411308D01*
X256232938Y-137174353D01*
X256469893Y-136819726D01*
X256553100Y-136401415D01*
X256553100Y-136358585D01*
X256469893Y-135940274D01*
X256232938Y-135585647D01*
X255878311Y-135348692D01*
X255460000Y-135265485D01*
X255041689Y-135348692D01*
X254687062Y-135585647D01*
X254450107Y-135940274D01*
X254366900Y-136358585D01*
X231359924Y-136358585D01*
X227750669Y-132749331D01*
X227635661Y-132672485D01*
X227500000Y-132645500D01*
X212750000Y-132645500D01*
X212614339Y-132672485D01*
X212499331Y-132749330D01*
X209789331Y-135459331D01*
X209712485Y-135574339D01*
X209685500Y-135710000D01*
X209685500Y-148550613D01*
X209621689Y-148563306D01*
X209267062Y-148800261D01*
X209030107Y-149154888D01*
X208946900Y-149573199D01*
X208597596Y-149573199D01*
X208597596Y-148734000D01*
X208581593Y-148648952D01*
X208531330Y-148570841D01*
X208454638Y-148518440D01*
X208363600Y-148500004D01*
X206636400Y-148500004D01*
X206551352Y-148516007D01*
X206473241Y-148566270D01*
X206420840Y-148642962D01*
X206402404Y-148734000D01*
X206076500Y-148734000D01*
X206076500Y-132076500D01*
X260923500Y-132076500D01*
X260923500Y-163923500D01*
X260923500Y-163923500D01*
G37*
X260923500Y-163923500D02*
X206076500Y-163923500D01*
X206076500Y-148734000D01*
X206402404Y-148734000D01*
X206402404Y-150766000D01*
X206418407Y-150851048D01*
X206468670Y-150929159D01*
X206545362Y-150981560D01*
X206636400Y-150999996D01*
X208363600Y-150999996D01*
X208448648Y-150983993D01*
X208526759Y-150933730D01*
X208579160Y-150857038D01*
X208597596Y-150766000D01*
X208597596Y-149573199D01*
X208946900Y-149573199D01*
X208946900Y-149926801D01*
X209030107Y-150345112D01*
X209267062Y-150699739D01*
X209621689Y-150936694D01*
X210040000Y-151019901D01*
X210458311Y-150936694D01*
X210812938Y-150699739D01*
X211049893Y-150345112D01*
X211132961Y-149927502D01*
X211279561Y-149927502D01*
X211155173Y-150153483D01*
X211359717Y-150679628D01*
X211750038Y-151087447D01*
X212179861Y-151294119D01*
X212402500Y-151192219D01*
X212402500Y-149927500D01*
X212757500Y-149927500D01*
X212757500Y-151192219D01*
X212980139Y-151294119D01*
X213409962Y-151087447D01*
X213800283Y-150679628D01*
X214004827Y-150153483D01*
X213880438Y-149927500D01*
X212757500Y-149927500D01*
X212402500Y-149927500D01*
X212382500Y-149927500D01*
X212382500Y-149572500D01*
X212402500Y-149572500D01*
X212402500Y-148307781D01*
X212757500Y-148307781D01*
X212757500Y-149572500D01*
X213880438Y-149572500D01*
X214004827Y-149346517D01*
X213800283Y-148820372D01*
X213409962Y-148412553D01*
X212980139Y-148205881D01*
X212757500Y-148307781D01*
X212402500Y-148307781D01*
X212179861Y-148205881D01*
X211750038Y-148412553D01*
X211359717Y-148820372D01*
X211155173Y-149346517D01*
X211279561Y-149572498D01*
X211132961Y-149572498D01*
X211049893Y-149154888D01*
X210812938Y-148800261D01*
X210458311Y-148563306D01*
X210394500Y-148550613D01*
X210394500Y-137004862D01*
X219570408Y-137004862D01*
X219650850Y-137199546D01*
X219745500Y-137294362D01*
X219745500Y-148300000D01*
X219772485Y-148435661D01*
X219849331Y-148550669D01*
X229270524Y-157971863D01*
X229270408Y-158104862D01*
X229350850Y-158299546D01*
X229499670Y-158448627D01*
X229694214Y-158529408D01*
X229904862Y-158529592D01*
X230099546Y-158449150D01*
X230248627Y-158300330D01*
X230329408Y-158105786D01*
X230329592Y-157895138D01*
X230249150Y-157700454D01*
X230100330Y-157551373D01*
X229905786Y-157470592D01*
X229771814Y-157470475D01*
X220454500Y-148153162D01*
X220454500Y-137294292D01*
X220548627Y-137200330D01*
X220629408Y-137005786D01*
X220629592Y-136795138D01*
X220549150Y-136600454D01*
X220400330Y-136451373D01*
X220205786Y-136370592D01*
X219995138Y-136370408D01*
X219800454Y-136450850D01*
X219651373Y-136599670D01*
X219570592Y-136794214D01*
X219570408Y-137004862D01*
X210394500Y-137004862D01*
X210394500Y-135856838D01*
X211946476Y-134304862D01*
X223170408Y-134304862D01*
X223250850Y-134499546D01*
X223399670Y-134648627D01*
X223594214Y-134729408D01*
X223728187Y-134729525D01*
X242049330Y-153050669D01*
X242164339Y-153127515D01*
X242300000Y-153154500D01*
X242902404Y-153154500D01*
X242902404Y-154863600D01*
X242918407Y-154948648D01*
X242968670Y-155026759D01*
X243045362Y-155079160D01*
X243136400Y-155097596D01*
X243645500Y-155097596D01*
X243645500Y-155400000D01*
X243672485Y-155535661D01*
X243749331Y-155650669D01*
X245049331Y-156950670D01*
X245164339Y-157027515D01*
X245300000Y-157054500D01*
X250900000Y-157054500D01*
X251035661Y-157027515D01*
X251150669Y-156950669D01*
X260150669Y-147950669D01*
X260227515Y-147835661D01*
X260254500Y-147700000D01*
X260254500Y-138280000D01*
X260227515Y-138144339D01*
X260150670Y-138029331D01*
X258982324Y-136860986D01*
X259009893Y-136819726D01*
X259093100Y-136401415D01*
X259093100Y-136358585D01*
X259009893Y-135940274D01*
X258772938Y-135585647D01*
X258418311Y-135348692D01*
X258000000Y-135265485D01*
X257581689Y-135348692D01*
X257227062Y-135585647D01*
X256990107Y-135940274D01*
X256906900Y-136358585D01*
X256906900Y-136401415D01*
X256990107Y-136819726D01*
X257227062Y-137174353D01*
X257581689Y-137411308D01*
X258000000Y-137494515D01*
X258418311Y-137411308D01*
X258485245Y-137366584D01*
X259545500Y-138426839D01*
X259545500Y-147553162D01*
X250753162Y-156345500D01*
X245446839Y-156345500D01*
X244354500Y-155253162D01*
X244354500Y-155097596D01*
X244863600Y-155097596D01*
X244948648Y-155081593D01*
X245026759Y-155031330D01*
X245079160Y-154954638D01*
X245097596Y-154863600D01*
X245097596Y-153154500D01*
X245843609Y-153154500D01*
X245767062Y-153205647D01*
X245530107Y-153560274D01*
X245446900Y-153978585D01*
X245446900Y-154021415D01*
X245530107Y-154439726D01*
X245767062Y-154794353D01*
X246121689Y-155031308D01*
X246207040Y-155048285D01*
X246212485Y-155075661D01*
X246289331Y-155190669D01*
X247149331Y-156050670D01*
X247264339Y-156127515D01*
X247400000Y-156154500D01*
X249700000Y-156154500D01*
X249835661Y-156127515D01*
X249950669Y-156050669D01*
X257050669Y-148950670D01*
X257127515Y-148835661D01*
X257130556Y-148820372D01*
X257154500Y-148700000D01*
X257154500Y-145448100D01*
X257676375Y-145448100D01*
X257822500Y-145301975D01*
X257822500Y-144177500D01*
X258177500Y-144177500D01*
X258177500Y-145301975D01*
X258323625Y-145448100D01*
X258979865Y-145448100D01*
X259194693Y-145359115D01*
X259359115Y-145194692D01*
X259448100Y-144979864D01*
X259448100Y-144323625D01*
X259301975Y-144177500D01*
X258177500Y-144177500D01*
X257822500Y-144177500D01*
X257802500Y-144177500D01*
X257802500Y-143822500D01*
X257822500Y-143822500D01*
X257822500Y-143802500D01*
X258177500Y-143802500D01*
X258177500Y-143822500D01*
X259301975Y-143822500D01*
X259448100Y-143676375D01*
X259448100Y-143020136D01*
X259359115Y-142805308D01*
X259194693Y-142640885D01*
X258979865Y-142551900D01*
X258323625Y-142551900D01*
X258177502Y-142698023D01*
X258177502Y-142551900D01*
X258113694Y-142551900D01*
X258418311Y-142491308D01*
X258772938Y-142254353D01*
X259009893Y-141899726D01*
X259093100Y-141481415D01*
X259093100Y-141438585D01*
X259009893Y-141020274D01*
X258772938Y-140665647D01*
X258418311Y-140428692D01*
X258000000Y-140345485D01*
X257581689Y-140428692D01*
X257227062Y-140665647D01*
X257154500Y-140774243D01*
X257154500Y-140266838D01*
X257514755Y-139906584D01*
X257581689Y-139951308D01*
X258000000Y-140034515D01*
X258418311Y-139951308D01*
X258772938Y-139714353D01*
X259009893Y-139359726D01*
X259093100Y-138941415D01*
X259093100Y-138898585D01*
X259009893Y-138480274D01*
X258772938Y-138125647D01*
X258418311Y-137888692D01*
X258000000Y-137805485D01*
X257581689Y-137888692D01*
X257227062Y-138125647D01*
X256990107Y-138480274D01*
X256906900Y-138898585D01*
X256906900Y-138941415D01*
X256990107Y-139359726D01*
X257017676Y-139400986D01*
X256549331Y-139869331D01*
X256472485Y-139984339D01*
X256445500Y-140120000D01*
X256445500Y-140983767D01*
X256232938Y-140665647D01*
X255878311Y-140428692D01*
X255460000Y-140345485D01*
X255041689Y-140428692D01*
X254687062Y-140665647D01*
X254450107Y-141020274D01*
X254366900Y-141438585D01*
X254366900Y-141481415D01*
X254450107Y-141899726D01*
X254687062Y-142254353D01*
X255041689Y-142491308D01*
X255460000Y-142574515D01*
X255878311Y-142491308D01*
X256232938Y-142254353D01*
X256445500Y-141936233D01*
X256445500Y-143523767D01*
X256232938Y-143205647D01*
X255878311Y-142968692D01*
X255460000Y-142885485D01*
X255041689Y-142968692D01*
X254687062Y-143205647D01*
X254450107Y-143560274D01*
X254366900Y-143978585D01*
X254366900Y-144021415D01*
X254450107Y-144439726D01*
X254687062Y-144794353D01*
X255041689Y-145031308D01*
X255460000Y-145114515D01*
X255878311Y-145031308D01*
X256232938Y-144794353D01*
X256445500Y-144476233D01*
X256445500Y-148553161D01*
X249553162Y-155445500D01*
X247546839Y-155445500D01*
X247062817Y-154961479D01*
X247312938Y-154794353D01*
X247549893Y-154439726D01*
X247633100Y-154021415D01*
X247633100Y-153978585D01*
X247549893Y-153560274D01*
X247312938Y-153205647D01*
X247236391Y-153154500D01*
X247553162Y-153154500D01*
X248051663Y-153653001D01*
X247986900Y-153978585D01*
X247986900Y-154021415D01*
X248070107Y-154439726D01*
X248307062Y-154794353D01*
X248661689Y-155031308D01*
X249080000Y-155114515D01*
X249498311Y-155031308D01*
X249852938Y-154794353D01*
X250089893Y-154439726D01*
X250173100Y-154021415D01*
X250173100Y-153978585D01*
X250089893Y-153560274D01*
X249852938Y-153205647D01*
X249498311Y-152968692D01*
X249193694Y-152908100D01*
X249257502Y-152908100D01*
X249257502Y-152749820D01*
X249480139Y-152851719D01*
X249781161Y-152727046D01*
X250212666Y-152362275D01*
X250471733Y-151860141D01*
X250371069Y-151637500D01*
X249257500Y-151637500D01*
X249257500Y-151657500D01*
X248902500Y-151657500D01*
X248902500Y-151637500D01*
X248882500Y-151637500D01*
X248882500Y-151282500D01*
X248902500Y-151282500D01*
X248902500Y-150170181D01*
X249257500Y-150170181D01*
X249257500Y-151282500D01*
X250371069Y-151282500D01*
X250471733Y-151059859D01*
X250212666Y-150557725D01*
X249781161Y-150192954D01*
X249480139Y-150068281D01*
X249257500Y-150170181D01*
X248902500Y-150170181D01*
X248679861Y-150068281D01*
X248378839Y-150192954D01*
X247947334Y-150557725D01*
X247688267Y-151059859D01*
X247788930Y-151282498D01*
X247631900Y-151282498D01*
X247631900Y-151432552D01*
X247549893Y-151020274D01*
X247312938Y-150665647D01*
X246958311Y-150428692D01*
X246894500Y-150415999D01*
X246894500Y-144206838D01*
X251826839Y-139274500D01*
X254433155Y-139274500D01*
X254450107Y-139359726D01*
X254687062Y-139714353D01*
X255041689Y-139951308D01*
X255460000Y-140034515D01*
X255878311Y-139951308D01*
X256232938Y-139714353D01*
X256469893Y-139359726D01*
X256553100Y-138941415D01*
X256553100Y-138898585D01*
X256469893Y-138480274D01*
X256232938Y-138125647D01*
X255878311Y-137888692D01*
X255460000Y-137805485D01*
X255041689Y-137888692D01*
X254687062Y-138125647D01*
X254450107Y-138480274D01*
X254433155Y-138565500D01*
X251680000Y-138565500D01*
X251544339Y-138592485D01*
X251429331Y-138669330D01*
X246289331Y-143809331D01*
X246212485Y-143924339D01*
X246185500Y-144060000D01*
X246185500Y-150415999D01*
X246121689Y-150428692D01*
X245767062Y-150665647D01*
X245530107Y-151020274D01*
X245446900Y-151438585D01*
X245446900Y-151481415D01*
X245530107Y-151899726D01*
X245767062Y-152254353D01*
X246053133Y-152445500D01*
X244486867Y-152445500D01*
X244772938Y-152254353D01*
X245009893Y-151899726D01*
X245093100Y-151481415D01*
X245093100Y-151438585D01*
X245009893Y-151020274D01*
X244772938Y-150665647D01*
X244418311Y-150428692D01*
X244354500Y-150415999D01*
X244354500Y-141500000D01*
X244327515Y-141364339D01*
X244250669Y-141249331D01*
X244229476Y-141228138D01*
X244229592Y-141095138D01*
X244149150Y-140900454D01*
X244000330Y-140751373D01*
X243805786Y-140670592D01*
X243595138Y-140670408D01*
X243400454Y-140750850D01*
X243251373Y-140899670D01*
X243170592Y-141094214D01*
X243170408Y-141304862D01*
X243250850Y-141499546D01*
X243399670Y-141648627D01*
X243594214Y-141729408D01*
X243645500Y-141729453D01*
X243645500Y-150415999D01*
X243581689Y-150428692D01*
X243227062Y-150665647D01*
X242990107Y-151020274D01*
X242906900Y-151438585D01*
X242906900Y-151481415D01*
X242990107Y-151899726D01*
X243227062Y-152254353D01*
X243513133Y-152445500D01*
X242446839Y-152445500D01*
X224229476Y-134228138D01*
X224229592Y-134095138D01*
X224149150Y-133900454D01*
X224000330Y-133751373D01*
X223805786Y-133670592D01*
X223595138Y-133670408D01*
X223400454Y-133750850D01*
X223251373Y-133899670D01*
X223170592Y-134094214D01*
X223170408Y-134304862D01*
X211946476Y-134304862D01*
X212896839Y-133354500D01*
X227353162Y-133354500D01*
X240249330Y-146250669D01*
X240364339Y-146327515D01*
X240500000Y-146354500D01*
X241605708Y-146354500D01*
X241699670Y-146448627D01*
X241894214Y-146529408D01*
X242104862Y-146529592D01*
X242299546Y-146449150D01*
X242448627Y-146300330D01*
X242529408Y-146105786D01*
X242529592Y-145895138D01*
X242449150Y-145700454D01*
X242300330Y-145551373D01*
X242105786Y-145470592D01*
X241895138Y-145470408D01*
X241700454Y-145550850D01*
X241605638Y-145645500D01*
X240646839Y-145645500D01*
X231359924Y-136358585D01*
X254366900Y-136358585D01*
X254366900Y-136401415D01*
X254450107Y-136819726D01*
X254687062Y-137174353D01*
X255041689Y-137411308D01*
X255460000Y-137494515D01*
X255878311Y-137411308D01*
X256232938Y-137174353D01*
X256469893Y-136819726D01*
X256553100Y-136401415D01*
X256553100Y-136358585D01*
X256469893Y-135940274D01*
X256232938Y-135585647D01*
X255878311Y-135348692D01*
X255460000Y-135265485D01*
X255041689Y-135348692D01*
X254687062Y-135585647D01*
X254450107Y-135940274D01*
X254366900Y-136358585D01*
X231359924Y-136358585D01*
X227750669Y-132749331D01*
X227635661Y-132672485D01*
X227500000Y-132645500D01*
X212750000Y-132645500D01*
X212614339Y-132672485D01*
X212499331Y-132749330D01*
X209789331Y-135459331D01*
X209712485Y-135574339D01*
X209685500Y-135710000D01*
X209685500Y-148550613D01*
X209621689Y-148563306D01*
X209267062Y-148800261D01*
X209030107Y-149154888D01*
X208946900Y-149573199D01*
X208597596Y-149573199D01*
X208597596Y-148734000D01*
X208581593Y-148648952D01*
X208531330Y-148570841D01*
X208454638Y-148518440D01*
X208363600Y-148500004D01*
X206636400Y-148500004D01*
X206551352Y-148516007D01*
X206473241Y-148566270D01*
X206420840Y-148642962D01*
X206402404Y-148734000D01*
X206076500Y-148734000D01*
X206076500Y-132076500D01*
X260923500Y-132076500D01*
X260923500Y-163923500D01*
M02*
