M48
;DRILL file {KiCad 4.0.2+dfsg1-2~bpo8+1-stable} date Sat 25 Nov 2017 07:55:13 PM CST
;FORMAT={-:-/ absolute / inch / decimal}
FMAT,2
INCH,TZ
T1C0.016
T2C0.040
%
G90
G05
M72
T1
X8.6654Y-5.3898
X8.8071Y-5.2835
X9.0472Y-6.2205
X9.5276Y-5.748
X9.5945Y-5.5591
T2
X8.1693Y-5.8957
X8.2693Y-5.8957
X8.3693Y-5.8957
X9.6063Y-5.963
X9.6063Y-6.063
X9.7063Y-5.963
X9.7063Y-6.063
X9.8063Y-5.963
X9.8063Y-6.063
X10.0575Y-5.3693
X10.0575Y-5.4693
X10.0575Y-5.5693
X10.0575Y-5.6693
X10.1575Y-5.3693
X10.1575Y-5.4693
X10.1575Y-5.5693
X10.1575Y-5.6693
T0
M30
